<svg xmlns="http://www.w3.org/2000/svg" version="1.1" xmlns:xlink="http://www.w3.org/1999/xlink" width="234px" height="122px" x="0px" y="0px" viewBox="0 0 234 122"><rect x="0" y="0" width="234" height="122" fill="#ffffff"></rect><g transform="translate(10, 10)" fill="#000000"><text font-family="monospace" font-size="20" text-anchor="start" x="0" y="102">1</text></g><g transform="translate(34, 10)" fill="#000000"><rect x="0" y="0" width="2" height="92"></rect><rect x="4" y="0" width="2" height="92"></rect><text font-family="monospace" font-size="20" text-anchor="middle" x="3" y="114"></text></g><g transform="translate(40, 10)" fill="#000000"><rect x="4" y="0" width="2" height="80"></rect><rect x="10" y="0" width="4" height="80"></rect><rect x="16" y="0" width="8" height="80"></rect><rect x="26" y="0" width="2" height="80"></rect><rect x="32" y="0" width="6" height="80"></rect><rect x="40" y="0" width="2" height="80"></rect><rect x="44" y="0" width="4" height="80"></rect><rect x="54" y="0" width="2" height="80"></rect><rect x="64" y="0" width="2" height="80"></rect><rect x="68" y="0" width="2" height="80"></rect><rect x="74" y="0" width="2" height="80"></rect><rect x="82" y="0" width="2" height="80"></rect><text font-family="monospace" font-size="20" text-anchor="middle" x="42" y="102">234567</text></g><g transform="translate(124, 10)" fill="#000000"><rect x="2" y="0" width="2" height="92"></rect><rect x="6" y="0" width="2" height="92"></rect><text font-family="monospace" font-size="20" text-anchor="middle" x="5" y="114"></text></g><g transform="translate(134, 10)" fill="#000000"><rect x="0" y="0" width="2" height="80"></rect><rect x="6" y="0" width="2" height="80"></rect><rect x="14" y="0" width="6" height="80"></rect><rect x="22" y="0" width="2" height="80"></rect><rect x="28" y="0" width="6" height="80"></rect><rect x="38" y="0" width="2" height="80"></rect><rect x="42" y="0" width="4" height="80"></rect><rect x="50" y="0" width="4" height="80"></rect><rect x="56" y="0" width="4" height="80"></rect><rect x="62" y="0" width="4" height="80"></rect><rect x="70" y="0" width="2" height="80"></rect><rect x="76" y="0" width="2" height="80"></rect><text font-family="monospace" font-size="20" text-anchor="middle" x="42" y="102">890128</text></g><g transform="translate(218, 10)" fill="#000000"><rect x="0" y="0" width="2" height="92"></rect><rect x="4" y="0" width="2" height="92"></rect><text font-family="monospace" font-size="20" text-anchor="middle" x="3" y="114"></text></g></svg>